<?xml version="1.0" standalone="no"?>
<!DOCTYPE svg PUBLIC "-//W3C//DTD SVG 20010904//EN"
 "http://www.w3.org/TR/2001/REC-SVG-20010904/DTD/svg10.dtd">
<svg version="1.0" xmlns="http://www.w3.org/2000/svg"
 width="200.000000pt" height="200.000000pt" viewBox="0 0 200.000000 200.000000"
 preserveAspectRatio="xMidYMid meet">

<g transform="translate(0.000000,200.000000) scale(0.100000,-0.100000)"
fill="#000000" stroke="none">
<path d="M888 1860 c-139 -24 -239 -70 -313 -144 -62 -62 -91 -122 -106 -218
-11 -71 -7 -277 7 -325 5 -17 2 -23 -9 -23 -26 0 -40 -38 -32 -86 3 -24 8 -76
10 -115 3 -52 11 -86 31 -124 24 -48 26 -60 20 -117 -14 -126 60 -274 229
-460 117 -130 159 -153 280 -152 137 0 204 44 360 239 115 144 155 239 155
374 0 65 5 100 19 132 13 31 21 81 26 165 6 118 6 122 -16 137 -21 15 -21 18
-10 92 43 289 -29 495 -204 580 -95 47 -308 68 -447 45z m-182 -321 c151 -40
413 -37 670 8 29 4 33 2 42 -29 14 -42 38 -202 51 -338 11 -111 26 -453 24
-531 -3 -90 -77 -228 -187 -346 l-54 -58 -1 97 c-1 178 -30 228 -157 268 -77
23 -101 24 -169 6 -146 -39 -171 -76 -184 -271 l-6 -90 -67 84 c-37 47 -87
123 -110 169 l-43 85 2 246 c1 216 4 264 27 395 32 183 67 326 80 326 2 0 38
-9 82 -21z m-218 -460 c7 -28 12 -96 12 -152 -1 -94 -2 -100 -15 -77 -8 14
-15 48 -15 75 0 28 -5 81 -10 118 -6 38 -8 73 -4 78 11 19 21 7 32 -42z m1057
-56 c-4 -54 -11 -118 -18 -143 -11 -45 -11 -45 -18 -15 -11 48 -10 147 2 190
15 60 18 65 29 65 7 0 8 -32 5 -97z m-406 -487 c26 -14 51 -43 51 -60 0 -2
-13 -1 -30 4 -41 12 -266 11 -312 -1 -21 -5 -38 -15 -38 -20 0 -7 7 -8 18 -3
30 13 284 15 330 3 44 -12 57 -32 50 -80 -4 -30 -77 -69 -130 -69 -45 0 -50
19 -13 48 14 11 25 22 25 24 0 5 -161 0 -167 -6 -3 -2 5 -9 16 -16 30 -15 27
-48 -4 -56 -39 -10 -86 4 -117 33 -23 22 -28 35 -28 72 0 64 16 90 80 128 48
30 61 33 102 28 26 -3 49 -1 53 4 6 11 59 -5 114 -33z"/>
<path d="M613 1155 c-23 -16 -47 -72 -33 -80 4 -3 29 5 56 16 45 20 52 21 136
9 49 -7 92 -10 95 -6 12 12 -11 40 -48 58 -44 23 -175 25 -206 3z"/>
<path d="M1205 1159 c-42 -6 -67 -16 -84 -34 -38 -38 -18 -51 55 -36 80 15
112 14 163 -10 57 -25 71 -13 42 35 -20 32 -71 59 -106 55 -5 -1 -37 -5 -70
-10z"/>
<path d="M735 1073 c-34 -7 -106 -35 -102 -39 2 -2 23 3 47 11 60 21 83 18 34
-4 -57 -26 -61 -37 -22 -61 52 -32 178 -16 184 22 3 21 -50 68 -76 68 -10 0
-24 2 -32 4 -7 2 -22 2 -33 -1z m110 -39 c22 -19 24 -22 6 -12 -58 32 -66 38
-51 38 8 0 29 -12 45 -26z m-118 -40 c-3 -4 -14 -3 -24 0 -15 6 -15 8 -3 16
16 10 39 -4 27 -16z m94 3 c-13 -13 -26 -3 -16 12 3 6 11 8 17 5 6 -4 6 -10
-1 -17z"/>
<path d="M1138 1040 l-33 -31 39 26 c21 14 46 25 55 24 10 0 6 -4 -9 -10 -26
-11 -70 -48 -70 -59 0 -14 125 -30 162 -20 57 16 65 34 26 59 -38 24 -30 28
12 6 17 -9 30 -13 30 -10 0 15 -85 45 -129 45 -43 0 -56 -5 -83 -30z m129 14
c-3 -3 -12 -4 -19 -1 -8 3 -5 6 6 6 11 1 17 -2 13 -5z m-78 -63 c-15 -5 -22 6
-14 19 6 9 10 9 16 -1 5 -8 4 -15 -2 -18z m104 14 c0 -6 -7 -11 -16 -13 -12
-3 -15 1 -11 13 7 17 25 17 27 0z"/>
<path d="M1123 783 c3 -10 11 -32 18 -49 7 -17 9 -39 5 -49 -6 -16 -8 -17 -24
-1 -23 20 -40 20 -86 1 -33 -14 -41 -14 -81 0 -31 10 -52 12 -69 5 -35 -13
-42 4 -21 51 10 22 15 42 11 46 -9 10 -23 -13 -38 -59 -10 -33 -9 -41 7 -58
19 -20 75 -28 75 -10 0 14 37 13 46 -1 6 -11 40 -8 92 7 16 5 22 2 22 -10 0
-34 77 -6 86 31 6 24 -25 113 -40 113 -4 0 -6 -8 -3 -17z"/>
</g>
</svg>
